<?xml version="1.0" encoding="UTF-8" standalone="no"?>
<svg
   xmlns:dc="http://purl.org/dc/elements/1.1/"
   xmlns:cc="http://creativecommons.org/ns#"
   xmlns:rdf="http://www.w3.org/1999/02/22-rdf-syntax-ns#"
   xmlns:svg="http://www.w3.org/2000/svg"
   xmlns="http://www.w3.org/2000/svg"
   id="svg8"
   version="1.1"
   viewBox="0 0 15.568454 10.824423"
   height="10.824423mm"
   width="15.568454mm">
  <defs
     id="defs2" />
  <metadata
     id="metadata5">
    <rdf:RDF>
      <cc:Work
         rdf:about="">
        <dc:format>image/svg+xml</dc:format>
        <dc:type
           rdf:resource="http://purl.org/dc/dcmitype/StillImage" />
        <dc:title></dc:title>
      </cc:Work>
    </rdf:RDF>
  </metadata>
  <g
     transform="translate(-82.51947,-123.64231)"
     id="layer1">
    <g
       transform="matrix(0.26458333,0,0,0.26458333,83.242936,122.06057)"
       id="g3771">
      <g
         id="g3715">
	<path
   style="fill:#010002"
   d="M 48.831,15.334 C 41.748,3.697 31.078,11.793 31.078,11.793 c -0.692,0.523 -1.968,0.953 -2.835,0.955 l -2.858,0.002 c -0.867,10e-4 -2.143,-0.429 -2.834,-0.952 0,0 -10.671,-8.098 -17.755,3.539 -7.082,11.633 -4.228,24.302 -4.228,24.302 0.5,3.102 2.148,5.172 5.258,4.912 3.101,-0.259 9.832,-8.354 9.832,-8.354 0.556,-0.667 1.721,-1.212 2.586,-1.212 l 17.134,-0.003 c 0.866,0 2.03,0.545 2.585,1.212 0,0 6.732,8.095 9.838,8.354 3.106,0.26 4.758,-1.812 5.255,-4.912 -10e-4,0 2.858,-12.667 -4.225,-24.302 z M 20.374,24.806 H 16.7 v 3.541 c 0,0 -0.778,0.594 -1.982,0.579 -1.202,-0.018 -1.746,-0.648 -1.746,-0.648 v -3.471 h -3.47 c 0,0 -0.433,-0.444 -0.549,-1.613 C 8.839,22.025 9.432,21.08 9.432,21.08 h 3.675 v -3.674 c 0,0 0.756,-0.405 1.843,-0.374 1.088,0.034 1.885,0.443 1.885,0.443 l -0.015,3.604 h 3.47 c 0,0 0.606,0.778 0.656,1.718 0.05,0.941 -0.572,2.009 -0.572,2.009 z m 16.852,4.036 c -1.609,0 -2.906,-1.301 -2.906,-2.908 0,-1.61 1.297,-2.908 2.906,-2.908 1.602,0 2.909,1.298 2.909,2.908 0,1.608 -1.307,2.908 -2.909,2.908 z m 0,-8.001 c -1.609,0 -2.906,-1.3 -2.906,-2.907 0,-1.61 1.297,-2.908 2.906,-2.908 1.602,0 2.909,1.298 2.909,2.908 0,1.608 -1.307,2.907 -2.909,2.907 z m 7.242,4.295 c -1.609,0 -2.906,-1.3 -2.906,-2.908 0,-1.609 1.297,-2.908 2.906,-2.908 1.602,0 2.909,1.299 2.909,2.908 0,1.608 -1.307,2.908 -2.909,2.908 z"
   id="path3713" />

</g>
      <g
         id="g3717">
</g>
      <g
         id="g3719">
</g>
      <g
         id="g3721">
</g>
      <g
         id="g3723">
</g>
      <g
         id="g3725">
</g>
      <g
         id="g3727">
</g>
      <g
         id="g3729">
</g>
      <g
         id="g3731">
</g>
      <g
         id="g3733">
</g>
      <g
         id="g3735">
</g>
      <g
         id="g3737">
</g>
      <g
         id="g3739">
</g>
      <g
         id="g3741">
</g>
      <g
         id="g3743">
</g>
      <g
         id="g3745">
</g>
    </g>
    <circle
       r="3.1792679"
       cy="130.10875"
       cx="90.465294"
       id="path3834"
       style="fill:#000000;stroke:#ff0000;stroke-width:0.66500002;stroke-miterlimit:4;stroke-dasharray:none;stroke-opacity:1;fill-opacity:1" />
    <path
       id="path4641"
       d="m 88.926652,128.79349 3.265297,2.66907"
       style="fill:none;stroke:#ff0000;stroke-width:0.63070202;stroke-linecap:round;stroke-linejoin:miter;stroke-miterlimit:4;stroke-dasharray:none;stroke-opacity:1" />
    <path
       id="path4641-3"
       d="m 91.851135,128.57242 -2.825682,3.09518"
       style="fill:none;stroke:#ff0000;stroke-width:0.63070202;stroke-linecap:round;stroke-linejoin:miter;stroke-miterlimit:4;stroke-dasharray:none;stroke-opacity:1" />
  </g>
</svg>
