<?xml version="1.0" encoding="UTF-8" standalone="no"?>
<svg
   xmlns:dc="http://purl.org/dc/elements/1.1/"
   xmlns:cc="http://creativecommons.org/ns#"
   xmlns:rdf="http://www.w3.org/1999/02/22-rdf-syntax-ns#"
   xmlns:svg="http://www.w3.org/2000/svg"
   xmlns="http://www.w3.org/2000/svg"
   width="305.82297"
   height="305.82297"
   viewBox="0 0 80.915658 80.915662"
   version="1.1"
   id="svg8">
  <defs
     id="defs2" />
  <metadata
     id="metadata5">
    <rdf:RDF>
      <cc:Work
         rdf:about="">
        <dc:format>image/svg+xml</dc:format>
        <dc:type
           rdf:resource="http://purl.org/dc/dcmitype/StillImage" />
        <dc:title></dc:title>
      </cc:Work>
    </rdf:RDF>
  </metadata>
  <g
     id="layer1"
     transform="translate(-62.38412,-142.53093)">
    <g
       id="g879"
       transform="matrix(0.12598949,0,0,0.12598949,71.872298,151.65194)">
      <g
         id="g819">
        <circle
           style="fill:#ffffff;fill-opacity:0.7254902;stroke:#000000;stroke-width:23.57510948;stroke-linecap:round;stroke-linejoin:round;stroke-miterlimit:4;stroke-dasharray:none;stroke-opacity:1"
           id="path884"
           cx="245.8114"
           cy="248.72568"
           r="309.33313" />
        <path
           d="m 245.5,322.9 c 53,0 96.2,-43.2 96.2,-96.2 V 96.2 C 341.7,43.2 298.5,0 245.5,0 c -53,0 -96.2,43.2 -96.2,96.2 v 130.5 c 0,53.1 43.2,96.2 96.2,96.2 z"
           id="path815"
           style="fill:#000000;fill-opacity:1" />
        <path
           d="m 94.4,214.5 c -6.8,0 -12.3,5.5 -12.3,12.3 0,85.9 66.7,156.6 151.1,162.8 v 76.7 h -63.9 c -6.8,0 -12.3,5.5 -12.3,12.3 0,6.8 5.5,12.3 12.3,12.3 h 152.3 c 6.8,0 12.3,-5.5 12.3,-12.3 0,-6.8 -5.5,-12.3 -12.3,-12.3 h -63.9 v -76.7 c 84.4,-6.3 151.1,-76.9 151.1,-162.8 0,-6.8 -5.5,-12.3 -12.3,-12.3 -6.8,0 -12.3,5.5 -12.3,12.3 0,76.6 -62.3,138.9 -138.9,138.9 -76.6,0 -138.9,-62.3 -138.9,-138.9 0.2,-6.8 -5.2,-12.3 -12,-12.3 z"
           id="path817" />
      </g>
      <g
         id="g823" />
      <g
         id="g825" />
      <g
         id="g827" />
      <g
         id="g829" />
      <g
         id="g831" />
      <g
         id="g833" />
      <g
         id="g835" />
      <g
         id="g837" />
      <g
         id="g839" />
      <g
         id="g841" />
      <g
         id="g843" />
      <g
         id="g845" />
      <g
         id="g847" />
      <g
         id="g849" />
      <g
         id="g851" />
    </g>
  </g>
  <path
     style="fill:#ffffff;fill-opacity:1;stroke-width:0.77184331"
     d="m 49.743627,30.269999 v -2.4946 c -1.274313,-0.453071 -2.079347,-0.580424 -2.484564,-1.55835 v -7.73e-4 c -0.406761,-0.981011 0.07719,-1.647114 0.653751,-2.861222 l -1.763663,-1.763662 c -1.204845,0.572705 -1.877894,1.061284 -2.861222,0.653751 h -7.73e-4 c -0.979468,-0.40599 -1.107595,-1.216427 -1.558352,-2.484565 h -2.494597 c -0.449211,1.261965 -0.578111,2.077802 -1.558352,2.484565 h -7.71e-4 c -0.981014,0.407533 -1.645571,-0.07564 -2.861225,-0.653751 l -1.763663,1.763662 c 0.575025,1.210249 1.061287,1.878664 0.653754,2.861222 -0.406763,0.981012 -1.2226,1.109911 -2.484566,1.559123 v 2.4946 c 1.25965,0.447668 2.077803,0.57811 2.484566,1.558349 0.409077,0.989504 -0.08798,1.671814 -0.653754,2.861225 l 1.763663,1.764433 c 1.205619,-0.573479 1.878668,-1.061285 2.861225,-0.653752 h 7.71e-4 c 0.980241,0.405991 1.108368,1.218741 1.558352,2.484565 h 2.494597 c 0.449214,-1.262735 0.578884,-2.076258 1.564528,-2.486881 h 7.7e-4 c 0.974069,-0.404444 1.636309,0.07795 2.854279,0.656841 l 1.76366,-1.764436 c -0.574252,-1.206389 -1.061285,-1.877894 -0.654521,-2.860449 0.40676,-0.981014 1.225686,-1.111454 2.486107,-1.559895 z m -9.26212,1.840072 c -1.705003,0 -3.087375,-1.382369 -3.087375,-3.087372 0,-1.705004 1.382372,-3.087373 3.087375,-3.087373 1.705,0 3.087372,1.382369 3.087372,3.087373 0,1.705003 -1.382372,3.087372 -3.087372,3.087372 z"
     id="path934" />
</svg>
