<?xml version="1.0" encoding="UTF-8" standalone="no"?>
<svg
   xmlns:dc="http://purl.org/dc/elements/1.1/"
   xmlns:cc="http://creativecommons.org/ns#"
   xmlns:rdf="http://www.w3.org/1999/02/22-rdf-syntax-ns#"
   xmlns:svg="http://www.w3.org/2000/svg"
   xmlns="http://www.w3.org/2000/svg"
   width="305.82297"
   height="305.82297"
   viewBox="0 0 80.915658 80.915662"
   version="1.1"
   id="svg8">
  <defs
     id="defs2" />
  <metadata
     id="metadata5">
    <rdf:RDF>
      <cc:Work
         rdf:about="">
        <dc:format>image/svg+xml</dc:format>
        <dc:type
           rdf:resource="http://purl.org/dc/dcmitype/StillImage" />
        <dc:title></dc:title>
      </cc:Work>
    </rdf:RDF>
  </metadata>
  <circle
     r="38.972725"
     cy="40.457832"
     cx="40.457832"
     id="path884"
     style="fill:#ff0019;fill-opacity:0.9754902;stroke:#000000;stroke-width:2.97021604;stroke-linecap:round;stroke-linejoin:round;stroke-miterlimit:4;stroke-dasharray:none;stroke-opacity:1" />
  <path
     style="fill:#ffffff;fill-opacity:1;stroke:none;stroke-width:0.1259895;stroke-opacity:1"
     id="path815"
     d="m 40.418598,49.803016 c 6.677443,0 12.120189,-5.442746 12.120189,-12.120189 V 21.241199 c 0,-6.677443 -5.442746,-12.120189 -12.120189,-12.120189 -6.677443,0 -12.120189,5.442746 -12.120189,12.120189 v 16.441628 c 0,6.690042 5.442746,12.120189 12.120189,12.120189 z" />
  <path
     style="fill:#ffffff;fill-opacity:1;stroke:none;stroke-width:0.1259895;stroke-opacity:1"
     id="path817"
     d="m 21.381586,36.145756 c -0.856729,0 -1.549671,0.692942 -1.549671,1.54967 0,10.822498 8.403499,19.729954 19.037012,20.511089 v 9.663394 h -8.050728 c -0.856729,0 -1.549671,0.692942 -1.549671,1.549671 0,0.856728 0.692942,1.549671 1.549671,1.549671 h 19.188199 c 0.856729,0 1.549671,-0.692943 1.549671,-1.549671 0,-0.856729 -0.692942,-1.549671 -1.549671,-1.549671 H 41.95567 v -9.663394 c 10.633513,-0.793733 19.037012,-9.688591 19.037012,-20.511089 0,-0.856728 -0.692943,-1.54967 -1.549671,-1.54967 -0.856729,0 -1.549671,0.692942 -1.549671,1.54967 0,9.650795 -7.849145,17.49994 -17.49994,17.49994 -9.650795,0 -17.49994,-7.849145 -17.49994,-17.49994 0.0252,-0.856728 -0.655146,-1.54967 -1.511874,-1.54967 z" />
  <path
     style="fill:#ff0019;fill-opacity:0.97647059;stroke-width:0.77184469"
     d="M 49.867305,31.055908 V 28.561304 C 48.59299,28.108232 47.787954,27.980878 47.382736,27.002951 v -7.73e-4 c -0.406761,-0.981013 0.07719,-1.647117 0.653752,-2.861227 l -1.763665,-1.763665 c -1.204848,0.572706 -1.877898,1.061286 -2.861227,0.653752 h -7.73e-4 c -0.97947,-0.405991 -1.107597,-1.216429 -1.558353,-2.484569 h -2.494604 c -0.449212,1.261967 -0.578111,2.077805 -1.558352,2.484569 h -7.73e-4 c -0.981013,0.407534 -1.645574,-0.07564 -2.861227,-0.653752 l -1.763665,1.763665 c 0.575022,1.210251 1.061286,1.878668 0.653752,2.861227 -0.406764,0.981014 -1.222602,1.109913 -2.484569,1.559126 v 2.494604 c 1.259651,0.447669 2.077805,0.578111 2.484569,1.558352 0.409077,0.989505 -0.08798,1.671817 -0.653752,2.86123 l 1.763665,1.764435 c 1.205621,-0.573479 1.878668,-1.061286 2.861227,-0.653752 h 7.73e-4 c 0.980241,0.405991 1.108367,1.218743 1.558352,2.484569 h 2.494604 c 0.449213,-1.262737 0.578883,-2.076262 1.564528,-2.486885 h 7.74e-4 c 0.974067,-0.404445 1.636308,0.07795 2.854281,0.656841 l 1.763665,-1.764438 c -0.574252,-1.206391 -1.061286,-1.877897 -0.654525,-2.860454 0.406761,-0.981016 1.225688,-1.111456 2.486112,-1.559898 z m -9.262137,1.840075 c -1.705006,0 -3.087377,-1.382371 -3.087377,-3.087377 0,-1.705007 1.382371,-3.087378 3.087377,-3.087378 1.705007,0 3.087378,1.382371 3.087378,3.087378 0,1.705006 -1.382371,3.087377 -3.087378,3.087377 z"
     id="path1631" />
  <path
     id="path928"
     d="M 16.630952,20.250482 63.122025,61.827864"
     style="fill:none;stroke:#000000;stroke-width:5.66499996;stroke-linecap:round;stroke-linejoin:miter;stroke-miterlimit:4;stroke-dasharray:none;stroke-opacity:1" />
  <g
     id="g823"
     transform="matrix(0.12598949,0,0,0.12598949,9.488178,9.12101)" />
  <g
     id="g825"
     transform="matrix(0.12598949,0,0,0.12598949,9.488178,9.12101)" />
  <g
     id="g827"
     transform="matrix(0.12598949,0,0,0.12598949,9.488178,9.12101)" />
  <g
     id="g829"
     transform="matrix(0.12598949,0,0,0.12598949,9.488178,9.12101)" />
  <g
     id="g831"
     transform="matrix(0.12598949,0,0,0.12598949,9.488178,9.12101)" />
  <g
     id="g833"
     transform="matrix(0.12598949,0,0,0.12598949,9.488178,9.12101)" />
  <g
     id="g835"
     transform="matrix(0.12598949,0,0,0.12598949,9.488178,9.12101)" />
  <g
     id="g837"
     transform="matrix(0.12598949,0,0,0.12598949,9.488178,9.12101)" />
  <g
     id="g839"
     transform="matrix(0.12598949,0,0,0.12598949,9.488178,9.12101)" />
  <g
     id="g841"
     transform="matrix(0.12598949,0,0,0.12598949,9.488178,9.12101)" />
  <g
     id="g843"
     transform="matrix(0.12598949,0,0,0.12598949,9.488178,9.12101)" />
  <g
     id="g845"
     transform="matrix(0.12598949,0,0,0.12598949,9.488178,9.12101)" />
  <g
     id="g847"
     transform="matrix(0.12598949,0,0,0.12598949,9.488178,9.12101)" />
  <g
     id="g849"
     transform="matrix(0.12598949,0,0,0.12598949,9.488178,9.12101)" />
  <g
     id="g851"
     transform="matrix(0.12598949,0,0,0.12598949,9.488178,9.12101)" />
</svg>
