<?xml version="1.0" encoding="UTF-8" standalone="no"?>
<svg
   xmlns:dc="http://purl.org/dc/elements/1.1/"
   xmlns:cc="http://creativecommons.org/ns#"
   xmlns:rdf="http://www.w3.org/1999/02/22-rdf-syntax-ns#"
   xmlns:svg="http://www.w3.org/2000/svg"
   xmlns="http://www.w3.org/2000/svg"
   id="svg8"
   version="1.1"
   viewBox="0 0 80.915658 80.915662"
   height="305.82297"
   width="305.82297">
  <defs
     id="defs2">
	
</defs>
  <metadata
     id="metadata5">
    <rdf:RDF>
      <cc:Work
         rdf:about="">
        <dc:format>image/svg+xml</dc:format>
        <dc:type
           rdf:resource="http://purl.org/dc/dcmitype/StillImage" />
        <dc:title></dc:title>
      </cc:Work>
    </rdf:RDF>
  </metadata>
  <g
     transform="translate(-62.38412,-142.53093)"
     id="layer1">
    <g
       transform="matrix(0.12598949,0,0,0.12598949,71.872298,151.65194)"
       id="g879">
      <g
         id="g819">
		<circle
   r="309.33313"
   cy="248.72568"
   cx="245.8114"
   id="path884"
   style="fill:#ff0019;fill-opacity:0.97549021;stroke:#000000;stroke-width:23.57510948;stroke-linecap:round;stroke-linejoin:round;stroke-miterlimit:4;stroke-dasharray:none;stroke-opacity:1" />
<path
   style="fill:#ffffff;fill-opacity:1;stroke:none;stroke-opacity:1"
   id="path815"
   d="m 245.5,322.9 c 53,0 96.2,-43.2 96.2,-96.2 V 96.2 C 341.7,43.2 298.5,0 245.5,0 c -53,0 -96.2,43.2 -96.2,96.2 v 130.5 c 0,53.1 43.2,96.2 96.2,96.2 z" />

		<path
   style="stroke:none;stroke-opacity:1;fill:#ffffff;fill-opacity:1"
   id="path817"
   d="m 94.4,214.5 c -6.8,0 -12.3,5.5 -12.3,12.3 0,85.9 66.7,156.6 151.1,162.8 v 76.7 h -63.9 c -6.8,0 -12.3,5.5 -12.3,12.3 0,6.8 5.5,12.3 12.3,12.3 h 152.3 c 6.8,0 12.3,-5.5 12.3,-12.3 0,-6.8 -5.5,-12.3 -12.3,-12.3 h -63.9 v -76.7 c 84.4,-6.3 151.1,-76.9 151.1,-162.8 0,-6.8 -5.5,-12.3 -12.3,-12.3 -6.8,0 -12.3,5.5 -12.3,12.3 0,76.6 -62.3,138.9 -138.9,138.9 -76.6,0 -138.9,-62.3 -138.9,-138.9 0.2,-6.8 -5.2,-12.3 -12,-12.3 z" />

	<path
   id="path928"
   d="M 56.693415,88.336508 425.70096,418.34326"
   style="fill:none;stroke:#000000;stroke-width:44.96406937;stroke-linecap:round;stroke-linejoin:miter;stroke-miterlimit:4;stroke-dasharray:none;stroke-opacity:1" />
</g>
      <g
         id="g823">
</g>
      <g
         id="g825">
</g>
      <g
         id="g827">
</g>
      <g
         id="g829">
</g>
      <g
         id="g831">
</g>
      <g
         id="g833">
</g>
      <g
         id="g835">
</g>
      <g
         id="g837">
</g>
      <g
         id="g839">
</g>
      <g
         id="g841">
</g>
      <g
         id="g843">
</g>
      <g
         id="g845">
</g>
      <g
         id="g847">
</g>
      <g
         id="g849">
</g>
      <g
         id="g851">
</g>
    </g>
  </g>
</svg>
