<?xml version="1.0" encoding="UTF-8" standalone="no"?>
<!-- Created with Inkscape (http://www.inkscape.org/) -->

<svg
   xmlns:dc="http://purl.org/dc/elements/1.1/"
   xmlns:cc="http://creativecommons.org/ns#"
   xmlns:rdf="http://www.w3.org/1999/02/22-rdf-syntax-ns#"
   xmlns:svg="http://www.w3.org/2000/svg"
   xmlns="http://www.w3.org/2000/svg"
   xmlns:sodipodi="http://sodipodi.sourceforge.net/DTD/sodipodi-0.dtd"
   xmlns:inkscape="http://www.inkscape.org/namespaces/inkscape"
   width="35.479843mm"
   height="35.479843mm"
   viewBox="0 0 35.479843 35.479843"
   version="1.1"
   id="svg8"
   inkscape:version="0.92.5 (2060ec1f9f, 2020-04-08)"
   sodipodi:docname="unspeak.svg">
  <defs
     id="defs2" />
  <sodipodi:namedview
     id="base"
     pagecolor="#ffffff"
     bordercolor="#666666"
     borderopacity="1.0"
     inkscape:pageopacity="0.0"
     inkscape:pageshadow="2"
     inkscape:zoom="3.959798"
     inkscape:cx="100.96223"
     inkscape:cy="65.723118"
     inkscape:document-units="mm"
     inkscape:current-layer="g848"
     showgrid="false"
     fit-margin-top="0"
     fit-margin-left="0"
     fit-margin-right="0"
     fit-margin-bottom="0"
     inkscape:window-width="1528"
     inkscape:window-height="836"
     inkscape:window-x="72"
     inkscape:window-y="27"
     inkscape:window-maximized="1" />
  <metadata
     id="metadata5">
    <rdf:RDF>
      <cc:Work
         rdf:about="">
        <dc:format>image/svg+xml</dc:format>
        <dc:type
           rdf:resource="http://purl.org/dc/dcmitype/StillImage" />
        <dc:title></dc:title>
      </cc:Work>
    </rdf:RDF>
  </metadata>
  <g
     inkscape:label="Layer 1"
     inkscape:groupmode="layer"
     id="layer1"
     transform="translate(-36.468423,-136.39121)">
    <g
       id="layer1-5"
       transform="matrix(0.4384793,0,0,0.4384793,9.1142777,73.894344)">
      <g
         id="g819"
         transform="matrix(0.12598949,0,0,0.12598949,71.872298,151.65194)">
        <circle
           r="309.33313"
           cy="248.72568"
           cx="245.8114"
           id="path884"
           style="fill:#ff0019;fill-opacity:0.9754902;stroke:#000000;stroke-width:23.57510948;stroke-linecap:round;stroke-linejoin:round;stroke-miterlimit:4;stroke-dasharray:none;stroke-opacity:1" />
      </g>
      <g
         id="g823"
         transform="matrix(0.12598949,0,0,0.12598949,71.872298,151.65194)" />
      <g
         id="g825"
         transform="matrix(0.12598949,0,0,0.12598949,71.872298,151.65194)" />
      <g
         id="g827"
         transform="matrix(0.12598949,0,0,0.12598949,71.872298,151.65194)" />
      <g
         id="g829"
         transform="matrix(0.12598949,0,0,0.12598949,71.872298,151.65194)" />
      <g
         id="g831"
         transform="matrix(0.12598949,0,0,0.12598949,71.872298,151.65194)" />
      <g
         id="g833"
         transform="matrix(0.12598949,0,0,0.12598949,71.872298,151.65194)" />
      <g
         id="g835"
         transform="matrix(0.12598949,0,0,0.12598949,71.872298,151.65194)" />
      <g
         id="g837"
         transform="matrix(0.12598949,0,0,0.12598949,71.872298,151.65194)" />
      <g
         id="g839"
         transform="matrix(0.12598949,0,0,0.12598949,71.872298,151.65194)" />
      <g
         id="g841"
         transform="matrix(0.12598949,0,0,0.12598949,71.872298,151.65194)" />
      <g
         id="g843"
         transform="matrix(0.12598949,0,0,0.12598949,71.872298,151.65194)" />
      <g
         id="g845"
         transform="matrix(0.12598949,0,0,0.12598949,71.872298,151.65194)" />
      <g
         id="g847"
         transform="matrix(0.12598949,0,0,0.12598949,71.872298,151.65194)" />
      <g
         id="g849"
         transform="matrix(0.12598949,0,0,0.12598949,71.872298,151.65194)" />
      <g
         id="g851"
         transform="matrix(0.12598949,0,0,0.12598949,71.872298,151.65194)" />
    </g>
    <g
       id="g848"
       transform="matrix(0.35326014,0,0,0.35326014,40.185923,140.71245)"
       style="stroke:#e4efdc;stroke-opacity:1">
      <path
         id="path834"
         style="fill:#ffffff;fill-opacity:1;stroke:#ffffff;stroke-width:4.64960432;stroke-linejoin:round;stroke-opacity:1"
         d="M 39.14367,15.863563 23.191808,29.660799 H 8.094542 V 47.415778 H 22.963047 L 39.14367,61.412017 Z"
         inkscape:connector-curvature="0" />
      <path
         style="fill:none;stroke:#ffffff;stroke-width:4.64618015;stroke-linecap:round;stroke-linejoin:miter;stroke-miterlimit:4;stroke-dasharray:none;stroke-opacity:1"
         d="M 71.349296,27.173074 49.957151,50.803927"
         id="path1537"
         inkscape:connector-curvature="0" />
      <path
         style="fill:none;stroke:#ffffff;stroke-width:4.64617968;stroke-linecap:round;stroke-linejoin:miter;stroke-miterlimit:4;stroke-dasharray:none;stroke-opacity:1"
         d="M 49.086542,26.799954 71.722411,50.928302"
         id="path1537-2"
         inkscape:connector-curvature="0"
         sodipodi:nodetypes="cc" />
      <path
         style="fill:none;stroke:#000000;stroke-width:6.41170549;stroke-linecap:round;stroke-linejoin:miter;stroke-miterlimit:4;stroke-dasharray:none;stroke-opacity:1"
         d="M 15.871041,7.9777316 66.544449,67.992286"
         id="path1742"
         inkscape:connector-curvature="0"
         sodipodi:nodetypes="cc" />
    </g>
  </g>
</svg>
